<svg xmlns="http://www.w3.org/2000/svg" xmlns:xlink="http://www.w3.org/1999/xlink" contentStyleType="text/css" height="337px" preserveAspectRatio="none" style="width:1849px;height:337px;background:#FFFFFF;" version="1.1" viewBox="0 0 1849 337" width="1849px" zoomAndPan="magnify"><title>Preprocessing pipeline</title><defs><filter height="300%" id="f9ywktwy3c01m" width="300%" x="-1" y="-1"><feGaussianBlur result="blurOut" stdDeviation="2"/><feColorMatrix in="blurOut" result="blurOut2" type="matrix" values="0 0 0 0 0 0 0 0 0 0 0 0 0 0 0 0 0 0 .4 0"/><feOffset dx="4" dy="4" in="blurOut2" result="blurOut3"/><feBlend in="SourceGraphic" in2="blurOut3" mode="normal"/></filter></defs><g><text fill="#000000" font-family="sans-serif" font-size="14" font-weight="bold" lengthAdjust="spacing" textLength="180.7217" x="827.1563" y="22.9951">Preprocessing pipeline</text><!--entity Videos--><g id="elem_Videos"><path d="M6,284.7969 C6,274.7969 39.4131,274.7969 39.4131,274.7969 C39.4131,274.7969 72.8262,274.7969 72.8262,284.7969 L72.8262,310.0938 C72.8262,320.0938 39.4131,320.0938 39.4131,320.0938 C39.4131,320.0938 6,320.0938 6,310.0938 L6,284.7969 " fill="#FEFECE" filter="url(#f9ywktwy3c01m)" style="stroke:#A80036;stroke-width:1;"/><path d="M6,284.7969 C6,294.7969 39.4131,294.7969 39.4131,294.7969 C39.4131,294.7969 72.8262,294.7969 72.8262,284.7969 " fill="none" style="stroke:#A80036;stroke-width:1;"/><text fill="#000000" font-family="sans-serif" font-size="14" lengthAdjust="spacing" textLength="46.8262" x="16" y="311.792">Videos</text></g><!--entity V--><g id="elem_V"><path d="M482.5,161.7969 C482.5,151.7969 547.5635,151.7969 547.5635,151.7969 C547.5635,151.7969 612.627,151.7969 612.627,161.7969 L612.627,187.0938 C612.627,197.0938 547.5635,197.0938 547.5635,197.0938 C547.5635,197.0938 482.5,197.0938 482.5,187.0938 L482.5,161.7969 " fill="#FEFECE" filter="url(#f9ywktwy3c01m)" style="stroke:#A80036;stroke-width:1;"/><path d="M482.5,161.7969 C482.5,171.7969 547.5635,171.7969 547.5635,171.7969 C547.5635,171.7969 612.627,171.7969 612.627,161.7969 " fill="none" style="stroke:#A80036;stroke-width:1;"/><text fill="#000000" font-family="sans-serif" font-size="14" lengthAdjust="spacing" textLength="110.127" x="492.5" y="188.792">Feature vectors</text></g><!--entity Metadata--><g id="elem_Metadata"><path d="M1480.5,284.7969 C1480.5,274.7969 1523.6475,274.7969 1523.6475,274.7969 C1523.6475,274.7969 1566.7949,274.7969 1566.7949,284.7969 L1566.7949,310.0938 C1566.7949,320.0938 1523.6475,320.0938 1523.6475,320.0938 C1523.6475,320.0938 1480.5,320.0938 1480.5,310.0938 L1480.5,284.7969 " fill="#FEFECE" filter="url(#f9ywktwy3c01m)" style="stroke:#A80036;stroke-width:1;"/><path d="M1480.5,284.7969 C1480.5,294.7969 1523.6475,294.7969 1523.6475,294.7969 C1523.6475,294.7969 1566.7949,294.7969 1566.7949,284.7969 " fill="none" style="stroke:#A80036;stroke-width:1;"/><text fill="#000000" font-family="sans-serif" font-size="14" lengthAdjust="spacing" textLength="66.2949" x="1490.5" y="311.792">Metadata</text></g><!--entity Timestamps--><g id="elem_Timestamps"><path d="M1450.5,54.7969 C1450.5,44.7969 1503.4365,44.7969 1503.4365,44.7969 C1503.4365,44.7969 1556.373,44.7969 1556.373,54.7969 L1556.373,80.0938 C1556.373,90.0938 1503.4365,90.0938 1503.4365,90.0938 C1503.4365,90.0938 1450.5,90.0938 1450.5,80.0938 L1450.5,54.7969 " fill="#FEFECE" filter="url(#f9ywktwy3c01m)" style="stroke:#A80036;stroke-width:1;"/><path d="M1450.5,54.7969 C1450.5,64.7969 1503.4365,64.7969 1503.4365,64.7969 C1503.4365,64.7969 1556.373,64.7969 1556.373,54.7969 " fill="none" style="stroke:#A80036;stroke-width:1;"/><text fill="#000000" font-family="sans-serif" font-size="14" lengthAdjust="spacing" textLength="85.873" x="1460.5" y="81.792">Timestamps</text></g><!--entity Nounlist--><g id="elem_Nounlist"><path d="M648,161.7969 C648,151.7969 686.6733,151.7969 686.6733,151.7969 C686.6733,151.7969 725.3467,151.7969 725.3467,161.7969 L725.3467,187.0938 C725.3467,197.0938 686.6733,197.0938 686.6733,197.0938 C686.6733,197.0938 648,197.0938 648,187.0938 L648,161.7969 " fill="#FEFECE" filter="url(#f9ywktwy3c01m)" style="stroke:#A80036;stroke-width:1;"/><path d="M648,161.7969 C648,171.7969 686.6733,171.7969 686.6733,171.7969 C686.6733,171.7969 725.3467,171.7969 725.3467,161.7969 " fill="none" style="stroke:#A80036;stroke-width:1;"/><text fill="#000000" font-family="sans-serif" font-size="14" lengthAdjust="spacing" textLength="57.3467" x="658" y="188.792">Nounlist</text></g><!--entity FN--><g id="elem_FN"><path d="M1049.5,161.7969 C1049.5,151.7969 1153.6343,151.7969 1153.6343,151.7969 C1153.6343,151.7969 1257.7686,151.7969 1257.7686,161.7969 L1257.7686,187.0938 C1257.7686,197.0938 1153.6343,197.0938 1153.6343,197.0938 C1153.6343,197.0938 1049.5,197.0938 1049.5,187.0938 L1049.5,161.7969 " fill="#FEFECE" filter="url(#f9ywktwy3c01m)" style="stroke:#A80036;stroke-width:1;"/><path d="M1049.5,161.7969 C1049.5,171.7969 1153.6343,171.7969 1153.6343,171.7969 C1153.6343,171.7969 1257.7686,171.7969 1257.7686,161.7969 " fill="none" style="stroke:#A80036;stroke-width:1;"/><text fill="#000000" font-family="sans-serif" font-size="14" lengthAdjust="spacing" textLength="188.2686" x="1059.5" y="188.792">Feature vectors of nounlist</text></g><!--entity Images--><g id="elem_Images"><path d="M512,284.7969 C512,274.7969 547.5698,274.7969 547.5698,274.7969 C547.5698,274.7969 583.1396,274.7969 583.1396,284.7969 L583.1396,310.0938 C583.1396,320.0938 547.5698,320.0938 547.5698,320.0938 C547.5698,320.0938 512,320.0938 512,310.0938 L512,284.7969 " fill="#FEFECE" filter="url(#f9ywktwy3c01m)" style="stroke:#A80036;stroke-width:1;"/><path d="M512,284.7969 C512,294.7969 547.5698,294.7969 547.5698,294.7969 C547.5698,294.7969 583.1396,294.7969 583.1396,284.7969 " fill="none" style="stroke:#A80036;stroke-width:1;"/><text fill="#000000" font-family="sans-serif" font-size="14" lengthAdjust="spacing" textLength="51.1396" x="522" y="311.792">Images</text></g><!--entity PD--><g id="elem_PD"><path d="M1621.5,161.7969 C1621.5,151.7969 1713.3877,151.7969 1713.3877,151.7969 C1713.3877,151.7969 1805.2754,151.7969 1805.2754,161.7969 L1805.2754,187.0938 C1805.2754,197.0938 1713.3877,197.0938 1713.3877,197.0938 C1713.3877,197.0938 1621.5,197.0938 1621.5,187.0938 L1621.5,161.7969 " fill="#FEFECE" filter="url(#f9ywktwy3c01m)" style="stroke:#A80036;stroke-width:1;"/><path d="M1621.5,161.7969 C1621.5,171.7969 1713.3877,171.7969 1713.3877,171.7969 C1713.3877,171.7969 1805.2754,171.7969 1805.2754,161.7969 " fill="none" style="stroke:#A80036;stroke-width:1;"/><text fill="#000000" font-family="sans-serif" font-size="14" lengthAdjust="spacing" textLength="163.7754" x="1631.5" y="188.792">Preprocessed database</text></g><!--entity a--><g id="elem_a"><rect fill="#FEFECE" filter="url(#f9ywktwy3c01m)" height="46.2969" style="stroke:#A80036;stroke-width:1;" width="224.2627" x="1601.5" y="274.2969"/><rect fill="#FEFECE" height="10" style="stroke:#A80036;stroke-width:1;" width="15" x="1805.7627" y="279.2969"/><rect fill="#FEFECE" height="2" style="stroke:#A80036;stroke-width:1;" width="4" x="1803.7627" y="281.2969"/><rect fill="#FEFECE" height="2" style="stroke:#A80036;stroke-width:1;" width="4" x="1803.7627" y="285.2969"/><text fill="#000000" font-family="sans-serif" font-size="14" lengthAdjust="spacing" textLength="184.2627" x="1616.5" y="307.292">create_db_from_metadata</text></g><!--entity b--><g id="elem_b"><rect fill="#FEFECE" filter="url(#f9ywktwy3c01m)" height="46.2969" style="stroke:#A80036;stroke-width:1;" width="293.1621" x="1293" y="151.2969"/><rect fill="#FEFECE" height="10" style="stroke:#A80036;stroke-width:1;" width="15" x="1566.1621" y="156.2969"/><rect fill="#FEFECE" height="2" style="stroke:#A80036;stroke-width:1;" width="4" x="1564.1621" y="158.2969"/><rect fill="#FEFECE" height="2" style="stroke:#A80036;stroke-width:1;" width="4" x="1564.1621" y="162.2969"/><text fill="#000000" font-family="sans-serif" font-size="14" lengthAdjust="spacing" textLength="253.1621" x="1308" y="184.292">create_db_from_processed_features</text></g><!--entity c--><g id="elem_c"><rect fill="#FEFECE" filter="url(#f9ywktwy3c01m)" height="46.2969" style="stroke:#A80036;stroke-width:1;" width="243.0342" x="1592" y="44.2969"/><rect fill="#FEFECE" height="10" style="stroke:#A80036;stroke-width:1;" width="15" x="1815.0342" y="49.2969"/><rect fill="#FEFECE" height="2" style="stroke:#A80036;stroke-width:1;" width="4" x="1813.0342" y="51.2969"/><rect fill="#FEFECE" height="2" style="stroke:#A80036;stroke-width:1;" width="4" x="1813.0342" y="55.2969"/><text fill="#000000" font-family="sans-serif" font-size="14" lengthAdjust="spacing" textLength="203.0342" x="1607" y="77.292">create_db_with_time_stamps</text></g><!--entity d--><g id="elem_d"><rect fill="#FEFECE" filter="url(#f9ywktwy3c01m)" height="46.2969" style="stroke:#A80036;stroke-width:1;" width="254.3408" x="760.5" y="151.2969"/><rect fill="#FEFECE" height="10" style="stroke:#A80036;stroke-width:1;" width="15" x="994.8408" y="156.2969"/><rect fill="#FEFECE" height="2" style="stroke:#A80036;stroke-width:1;" width="4" x="992.8408" y="158.2969"/><rect fill="#FEFECE" height="2" style="stroke:#A80036;stroke-width:1;" width="4" x="992.8408" y="162.2969"/><text fill="#000000" font-family="sans-serif" font-size="14" lengthAdjust="spacing" textLength="214.3408" x="775.5" y="184.292">create_noun_db_from_nounlist</text></g><!--entity e--><g id="elem_e"><rect fill="#FEFECE" filter="url(#f9ywktwy3c01m)" height="46.2969" style="stroke:#A80036;stroke-width:1;" width="369.7588" x="107.5" y="274.2969"/><rect fill="#FEFECE" height="10" style="stroke:#A80036;stroke-width:1;" width="15" x="457.2588" y="279.2969"/><rect fill="#FEFECE" height="2" style="stroke:#A80036;stroke-width:1;" width="4" x="455.2588" y="281.2969"/><rect fill="#FEFECE" height="2" style="stroke:#A80036;stroke-width:1;" width="4" x="455.2588" y="285.2969"/><text fill="#000000" font-family="sans-serif" font-size="14" lengthAdjust="spacing" textLength="329.7588" x="122.5" y="307.292">extract_keyframes_if_msb_and_videos_present</text></g><!--link Nounlist to d--><g id="link_Nounlist_d"><path d="M725.37,174.2969 C736.98,174.2969 742.59,174.2969 754.2,174.2969 " fill="none" id="Nounlist-to-d" style="stroke:#A80036;stroke-width:1;"/><polygon fill="#A80036" points="760.2,174.2969,751.2,170.2969,755.2,174.2969,751.2,178.2969,760.2,174.2969" style="stroke:#A80036;stroke-width:1;"/></g><!--link d to FN--><g id="link_d_FN"><path d="M1014.53,174.2969 C1026.11,174.2969 1031.69,174.2969 1043.27,174.2969 " fill="none" id="d-to-FN" style="stroke:#A80036;stroke-width:1;"/><polygon fill="#A80036" points="1049.27,174.2969,1040.27,170.2969,1044.27,174.2969,1040.27,178.2969,1049.27,174.2969" style="stroke:#A80036;stroke-width:1;"/></g><!--link FN to b--><g id="link_FN_b"><path d="M1257.68,174.2969 C1269.4,174.2969 1275.12,174.2969 1286.83,174.2969 " fill="none" id="FN-to-b" style="stroke:#A80036;stroke-width:1;"/><polygon fill="#A80036" points="1292.83,174.2969,1283.83,170.2969,1287.83,174.2969,1283.83,178.2969,1292.83,174.2969" style="stroke:#A80036;stroke-width:1;"/></g><!--link V to b--><g id="link_V_b"><path d="M580.23,151.5869 C599.11,139.8869 623.84,126.8269 648,120.7969 C779.52,87.9669 1123.83,101.4369 1258,120.7969 C1298.64,126.6669 1337.1838,137.6418 1371.8038,149.3018 " fill="none" id="V-to-b" style="stroke:#A80036;stroke-width:1;"/><polygon fill="#A80036" points="1377.49,151.2169,1370.2375,144.5535,1372.7515,149.621,1367.684,152.135,1377.49,151.2169" style="stroke:#A80036;stroke-width:1;"/></g><!--link b to PD--><g id="link_b_PD"><path d="M1586.13,174.2969 C1597.91,174.2969 1603.68,174.2969 1615.46,174.2969 " fill="none" id="b-to-PD" style="stroke:#A80036;stroke-width:1;"/><polygon fill="#A80036" points="1621.46,174.2969,1612.46,170.2969,1616.46,174.2969,1612.46,178.2969,1621.46,174.2969" style="stroke:#A80036;stroke-width:1;"/></g><!--link Metadata to a--><g id="link_Metadata_a"><path d="M1566.55,297.2969 C1578.12,297.2969 1583.7,297.2969 1595.28,297.2969 " fill="none" id="Metadata-to-a" style="stroke:#A80036;stroke-width:1;"/><polygon fill="#A80036" points="1601.28,297.2969,1592.28,293.2969,1596.28,297.2969,1592.28,301.2969,1601.28,297.2969" style="stroke:#A80036;stroke-width:1;"/></g><!--reverse link PD to a--><g id="link_PD_a"><path d="M1713.5,202.9269 C1713.5,224.6769 1713.5,252.0569 1713.5,274.0369 " fill="none" id="PD-backto-a" style="stroke:#A80036;stroke-width:1;"/><polygon fill="#A80036" points="1713.5,196.9269,1709.5,205.9269,1713.5,201.9269,1717.5,205.9269,1713.5,196.9269" style="stroke:#A80036;stroke-width:1;"/></g><!--link Timestamps to c--><g id="link_Timestamps_c"><path d="M1556.82,67.2969 C1568.45,67.2969 1574.08,67.2969 1585.71,67.2969 " fill="none" id="Timestamps-to-c" style="stroke:#A80036;stroke-width:1;"/><polygon fill="#A80036" points="1591.71,67.2969,1582.71,63.2969,1586.71,67.2969,1582.71,71.2969,1591.71,67.2969" style="stroke:#A80036;stroke-width:1;"/></g><!--link c to PD--><g id="link_c_PD"><path d="M1713.5,90.3069 C1713.5,108.3469 1713.5,127.7369 1713.5,145.6769 " fill="none" id="c-to-PD" style="stroke:#A80036;stroke-width:1;"/><polygon fill="#A80036" points="1713.5,151.6769,1717.5,142.6769,1713.5,146.6769,1709.5,142.6769,1713.5,151.6769" style="stroke:#A80036;stroke-width:1;"/></g><!--link Videos to e--><g id="link_Videos_e"><path d="M73.1,297.2969 C84.53,297.2969 89.96,297.2969 101.38,297.2969 " fill="none" id="Videos-to-e" style="stroke:#A80036;stroke-width:1;"/><polygon fill="#A80036" points="107.38,297.2969,98.38,293.2969,102.38,297.2969,98.38,301.2969,107.38,297.2969" style="stroke:#A80036;stroke-width:1;"/></g><!--link e to Images--><g id="link_e_Images"><path d="M477.77,297.2969 C489.12,297.2969 494.47,297.2969 505.82,297.2969 " fill="none" id="e-to-Images" style="stroke:#A80036;stroke-width:1;"/><polygon fill="#A80036" points="511.82,297.2969,502.82,293.2969,506.82,297.2969,502.82,301.2969,511.82,297.2969" style="stroke:#A80036;stroke-width:1;"/></g><!--reverse link V to Images--><g id="link_V_Images"><path d="M547.5,202.9269 C547.5,224.8169 547.5,252.4769 547.5,274.4469 " fill="none" id="V-backto-Images" style="stroke:#A80036;stroke-width:1;stroke-dasharray:7.0,7.0;"/><polygon fill="#A80036" points="547.5,196.9269,543.5,205.9269,547.5,201.9269,551.5,205.9269,547.5,196.9269" style="stroke:#A80036;stroke-width:1;"/><text fill="#000000" font-family="sans-serif" font-size="13" lengthAdjust="spacing" textLength="182.4443" x="548.5" y="240.3638">extracted outside of system</text></g><!--SRC=[XL8zRy8m4DtzAons63fsO4987OgGMh6WodBi2rZ47_9TeAZgVw_Z12SAGpU_k-Ttz_oC5-Duz0YCOJe66QNbojlW7JZwe7i3lBND2sDaA9tt4KBq2X2DE_5W0ZJ6fSjCIvALHE07ey4Z_s6_a-9Y2vBQ2FmAYdp41PV83pFIEv3imApyQImWIHlceZlVkiOW_JEB-vgxWPhdRdUp6szMdk1fvT4gQFuePu7zfkSULKoZGEXArD5ROGS3Nnr9FhMBcgZx3J4JgodnPkWiA3aMlUNCK8NH-IXw3rEPezaHlYbAHU82zph522XCBInMGZejhZcMj0DW2ZPVwM8hRxYCvdIcvJe9wH5iToozLe4LEqn1DOBzXfNuIb6o1DhGjoSn5e9YYY-rlxcUCdoTqWO68-X3OaDMgpQirka7lVB1TSh8juH9eSiRxqXW_m00]--></g></svg>