<svg xmlns="http://www.w3.org/2000/svg" xmlns:xlink="http://www.w3.org/1999/xlink" contentStyleType="text/css" height="795px" preserveAspectRatio="none" style="width:1375px;height:795px;background:#FFFFFF;" version="1.1" viewBox="0 0 1375 795" width="1375px" zoomAndPan="magnify"><title>Data service structure</title><defs><filter height="300%" id="fg5ge3jsrdxd5" width="300%" x="-1" y="-1"><feGaussianBlur result="blurOut" stdDeviation="2"/><feColorMatrix in="blurOut" result="blurOut2" type="matrix" values="0 0 0 0 0 0 0 0 0 0 0 0 0 0 0 0 0 0 .4 0"/><feOffset dx="4" dy="4" in="blurOut2" result="blurOut3"/><feBlend in="SourceGraphic" in2="blurOut3" mode="normal"/></filter></defs><g><text fill="#000000" font-family="sans-serif" font-size="14" font-weight="bold" lengthAdjust="spacing" textLength="176.6611" x="592.1694" y="22.9951">Data service structure</text><!--cluster Application service--><g id="cluster_Application service"><polygon fill="none" filter="url(#fg5ge3jsrdxd5)" points="1192,266.2969,1348.623,266.2969,1355.623,288.5938,1358,288.5938,1358,609.2969,1192,609.2969,1192,266.2969" style="stroke:#000000;stroke-width:1.5;"/><line style="stroke:#000000;stroke-width:1.5;" x1="1192" x2="1355.623" y1="288.5938" y2="288.5938"/><text fill="#000000" font-family="sans-serif" font-size="14" font-weight="bold" lengthAdjust="spacing" textLength="150.623" x="1196" y="281.292">Application service</text></g><!--cluster Data service--><g id="cluster_Data service"><polygon fill="none" filter="url(#fg5ge3jsrdxd5)" points="16,53.2969,26,43.2969,1168,43.2969,1168,768.2969,1158,778.2969,16,778.2969,16,53.2969" style="stroke:#000000;stroke-width:1.5;"/><line style="stroke:#000000;stroke-width:1.5;" x1="1158" x2="1168" y1="53.2969" y2="43.2969"/><line style="stroke:#000000;stroke-width:1.5;" x1="16" x2="1158" y1="53.2969" y2="53.2969"/><line style="stroke:#000000;stroke-width:1.5;" x1="1158" x2="1158" y1="53.2969" y2="778.2969"/><text fill="#000000" font-family="sans-serif" font-size="14" font-weight="bold" lengthAdjust="spacing" textLength="98.5332" x="538.7334" y="69.292">Data service</text></g><!--cluster FL--><g id="cluster_FL"><path d="M262,652.2969 C262,642.2969 703,642.2969 703,642.2969 C703,642.2969 1144,642.2969 1144,652.2969 L1144,744.2969 C1144,754.2969 703,754.2969 703,754.2969 C703,754.2969 262,754.2969 262,744.2969 L262,652.2969 " fill="none" filter="url(#fg5ge3jsrdxd5)" style="stroke:#A80036;stroke-width:1;"/><path d="M262,652.2969 C262,662.2969 703,662.2969 703,662.2969 C703,662.2969 1144,662.2969 1144,652.2969 " fill="none" style="stroke:#A80036;stroke-width:1;"/><text fill="#000000" font-family="sans-serif" font-size="14" font-weight="bold" lengthAdjust="spacing" textLength="90.0977" x="657.9512" y="677.292">File system</text></g><!--entity Backend--><g id="elem_Backend"><rect fill="#FEFECE" filter="url(#fg5ge3jsrdxd5)" height="46.2969" style="stroke:#A80036;stroke-width:1;" width="100.3613" x="1209" y="301.2969"/><rect fill="#FEFECE" height="10" style="stroke:#A80036;stroke-width:1;" width="15" x="1289.3613" y="306.2969"/><rect fill="#FEFECE" height="2" style="stroke:#A80036;stroke-width:1;" width="4" x="1287.3613" y="308.2969"/><rect fill="#FEFECE" height="2" style="stroke:#A80036;stroke-width:1;" width="4" x="1287.3613" y="312.2969"/><text fill="#000000" font-family="sans-serif" font-size="14" lengthAdjust="spacing" textLength="60.3613" x="1224" y="334.292">Backend</text></g><!--entity Internet--><g id="elem_Internet"><path d="M1225.7718,433.1775 C1228.8675,428.1434 1232.7961,427.8783 1236.6035,432.3681 C1239.7115,426.1962 1244.0558,426.2969 1248.2975,431.1676 C1251.2135,425.845 1255.4813,425.3676 1259.0613,430.4829 C1262.8098,425.5585 1266.6667,424.4578 1270.654,430.2239 C1275.6972,424.9605 1279.9282,425.1092 1282.7707,432.3555 C1286.8283,427.188 1291.4861,427.4625 1295.1725,432.794 C1302.5104,435.6334 1304.2477,442.9895 1297.9329,448.2649 C1303.7375,454.6665 1303.583,459.7502 1295.587,464.1084 C1293.6328,470.269 1288.099,470.6771 1284.3502,465.9627 C1281.4104,474.236 1276.9431,475.278 1270.8192,468.9043 C1269.8868,474.6205 1265.1934,476.8034 1260.3054,473.531 C1255.7073,477.7292 1250.4243,477.1893 1248.4621,470.6292 C1241.9423,475.4647 1238.7172,472.8306 1236.5099,466.1524 C1232.3016,470.608 1227.2343,470.1396 1224.5627,464.3589 C1214.9047,463.3862 1211.6838,456.1627 1218.2799,448.6777 C1212.1629,439.6954 1215.2557,434.1204 1225.7718,433.1775 " fill="#FEFECE" filter="url(#fg5ge3jsrdxd5)" style="stroke:#A80036;stroke-width:1;"/><text fill="#000000" font-family="sans-serif" font-size="14" lengthAdjust="spacing" textLength="55.8359" x="1231" y="452.292">Internet</text></g><!--entity Frontend--><g id="elem_Frontend"><rect fill="#FEFECE" filter="url(#fg5ge3jsrdxd5)" height="46.2969" style="stroke:#A80036;stroke-width:1;" width="103.1094" x="1208.5" y="547.2969"/><rect fill="#FEFECE" height="10" style="stroke:#A80036;stroke-width:1;" width="15" x="1291.6094" y="552.2969"/><rect fill="#FEFECE" height="2" style="stroke:#A80036;stroke-width:1;" width="4" x="1289.6094" y="554.2969"/><rect fill="#FEFECE" height="2" style="stroke:#A80036;stroke-width:1;" width="4" x="1289.6094" y="558.2969"/><text fill="#000000" font-family="sans-serif" font-size="14" lengthAdjust="spacing" textLength="63.1094" x="1223.5" y="580.292">Frontend</text></g><g id="elem_Proxy"><ellipse cx="924.9326" cy="97.863" fill="#FEFECE" filter="url(#fg5ge3jsrdxd5)" rx="39.4326" ry="14.5662" style="stroke:#A80036;stroke-width:1;"/><text fill="#000000" font-family="sans-serif" font-size="14" lengthAdjust="spacing" textLength="39.334" x="903.0581" y="101.4105">Proxy</text></g><!--entity Interface--><g id="elem_Interface"><rect fill="#FEFECE" filter="url(#fg5ge3jsrdxd5)" height="46.2969" style="stroke:#A80036;stroke-width:1;" width="67.3506" x="675.5" y="173.2969"/><rect fill="#FEFECE" height="10" style="stroke:#A80036;stroke-width:1;" width="15" x="722.8506" y="178.2969"/><rect fill="#FEFECE" height="2" style="stroke:#A80036;stroke-width:1;" width="4" x="720.8506" y="180.2969"/><rect fill="#FEFECE" height="2" style="stroke:#A80036;stroke-width:1;" width="4" x="720.8506" y="184.2969"/><text fill="#000000" font-family="sans-serif" font-size="14" lengthAdjust="spacing" textLength="27.3506" x="690.5" y="206.292">App</text></g><!--entity DA--><g id="elem_DA"><rect fill="#FEFECE" filter="url(#fg5ge3jsrdxd5)" height="46.2969" style="stroke:#A80036;stroke-width:1;" width="106.8008" x="604.5" y="547.2969"/><rect fill="#FEFECE" height="10" style="stroke:#A80036;stroke-width:1;" width="15" x="691.3008" y="552.2969"/><rect fill="#FEFECE" height="2" style="stroke:#A80036;stroke-width:1;" width="4" x="689.3008" y="554.2969"/><rect fill="#FEFECE" height="2" style="stroke:#A80036;stroke-width:1;" width="4" x="689.3008" y="558.2969"/><text fill="#000000" font-family="sans-serif" font-size="14" lengthAdjust="spacing" textLength="66.8008" x="619.5" y="580.292">Database</text></g><!--entity Model--><g id="elem_Model"><rect fill="#FEFECE" filter="url(#fg5ge3jsrdxd5)" height="46.2969" style="stroke:#A80036;stroke-width:1;" width="89.3281" x="215.5" y="547.2969"/><rect fill="#FEFECE" height="10" style="stroke:#A80036;stroke-width:1;" width="15" x="284.8281" y="552.2969"/><rect fill="#FEFECE" height="2" style="stroke:#A80036;stroke-width:1;" width="4" x="282.8281" y="554.2969"/><rect fill="#FEFECE" height="2" style="stroke:#A80036;stroke-width:1;" width="4" x="282.8281" y="558.2969"/><text fill="#000000" font-family="sans-serif" font-size="14" lengthAdjust="spacing" textLength="49.3281" x="230.5" y="580.292">Models</text></g><!--entity Features--><g id="elem_Features"><rect fill="#FEFECE" filter="url(#fg5ge3jsrdxd5)" height="46.2969" style="stroke:#A80036;stroke-width:1;" width="101.2705" x="465.5" y="424.2969"/><rect fill="#FEFECE" height="10" style="stroke:#A80036;stroke-width:1;" width="15" x="546.7705" y="429.2969"/><rect fill="#FEFECE" height="2" style="stroke:#A80036;stroke-width:1;" width="4" x="544.7705" y="431.2969"/><rect fill="#FEFECE" height="2" style="stroke:#A80036;stroke-width:1;" width="4" x="544.7705" y="435.2969"/><text fill="#000000" font-family="sans-serif" font-size="14" lengthAdjust="spacing" textLength="61.2705" x="480.5" y="457.292">Features</text></g><!--entity Logger--><g id="elem_Logger"><rect fill="#FEFECE" filter="url(#fg5ge3jsrdxd5)" height="46.2969" style="stroke:#A80036;stroke-width:1;" width="88.5078" x="496.5" y="301.2969"/><rect fill="#FEFECE" height="10" style="stroke:#A80036;stroke-width:1;" width="15" x="565.0078" y="306.2969"/><rect fill="#FEFECE" height="2" style="stroke:#A80036;stroke-width:1;" width="4" x="563.0078" y="308.2969"/><rect fill="#FEFECE" height="2" style="stroke:#A80036;stroke-width:1;" width="4" x="563.0078" y="312.2969"/><text fill="#000000" font-family="sans-serif" font-size="14" lengthAdjust="spacing" textLength="48.5078" x="511.5" y="334.292">Logger</text></g><!--entity Mod--><g id="elem_Mod"><polygon fill="#FEFECE" filter="url(#fg5ge3jsrdxd5)" points="32.5,702.2969,42.5,692.2969,243.2002,692.2969,243.2002,728.5938,233.2002,738.5938,32.5,738.5938,32.5,702.2969" style="stroke:#000000;stroke-width:1.5;"/><line style="stroke:#000000;stroke-width:1.5;" x1="233.2002" x2="243.2002" y1="702.2969" y2="692.2969"/><line style="stroke:#000000;stroke-width:1.5;" x1="32.5" x2="233.2002" y1="702.2969" y2="702.2969"/><line style="stroke:#000000;stroke-width:1.5;" x1="233.2002" x2="233.2002" y1="702.2969" y2="738.5938"/><text fill="#000000" font-family="sans-serif" font-size="14" lengthAdjust="spacing" textLength="170.7002" x="47.5" y="725.292">Feature extractor model</text></g><!--entity DB--><g id="elem_DB"><rect fill="#FEFECE" filter="url(#fg5ge3jsrdxd5)" height="46.2969" style="stroke:#A80036;stroke-width:1;" width="239.5957" x="677" y="692.2969"/><rect fill="#FEFECE" height="10" style="stroke:#A80036;stroke-width:1;" width="15" x="896.5957" y="697.2969"/><rect fill="#FEFECE" height="2" style="stroke:#A80036;stroke-width:1;" width="4" x="894.5957" y="699.2969"/><rect fill="#FEFECE" height="2" style="stroke:#A80036;stroke-width:1;" width="4" x="894.5957" y="703.2969"/><text fill="#000000" font-family="sans-serif" font-size="14" lengthAdjust="spacing" textLength="199.5957" x="692" y="725.292">Extracted features database</text></g><!--entity MDB--><g id="elem_MDB"><rect fill="#FEFECE" filter="url(#fg5ge3jsrdxd5)" height="46.2969" style="stroke:#A80036;stroke-width:1;" width="175.6523" x="952" y="692.2969"/><rect fill="#FEFECE" height="10" style="stroke:#A80036;stroke-width:1;" width="15" x="1107.6523" y="697.2969"/><rect fill="#FEFECE" height="2" style="stroke:#A80036;stroke-width:1;" width="4" x="1105.6523" y="699.2969"/><rect fill="#FEFECE" height="2" style="stroke:#A80036;stroke-width:1;" width="4" x="1105.6523" y="703.2969"/><text fill="#000000" font-family="sans-serif" font-size="14" lengthAdjust="spacing" textLength="135.6523" x="967" y="725.292">Metadata database</text></g><!--entity Original--><g id="elem_Original"><rect fill="#FEFECE" filter="url(#fg5ge3jsrdxd5)" height="46.2969" style="stroke:#A80036;stroke-width:1;" width="132.6611" x="278.5" y="692.2969"/><rect fill="#FEFECE" height="10" style="stroke:#A80036;stroke-width:1;" width="15" x="391.1611" y="697.2969"/><rect fill="#FEFECE" height="2" style="stroke:#A80036;stroke-width:1;" width="4" x="389.1611" y="699.2969"/><rect fill="#FEFECE" height="2" style="stroke:#A80036;stroke-width:1;" width="4" x="389.1611" y="703.2969"/><text fill="#000000" font-family="sans-serif" font-size="14" lengthAdjust="spacing" textLength="92.6611" x="293.5" y="725.292">Original Data</text></g><!--entity TDB--><g id="elem_TDB"><rect fill="#FEFECE" filter="url(#fg5ge3jsrdxd5)" height="46.2969" style="stroke:#A80036;stroke-width:1;" width="195.2305" x="446.5" y="692.2969"/><rect fill="#FEFECE" height="10" style="stroke:#A80036;stroke-width:1;" width="15" x="621.7305" y="697.2969"/><rect fill="#FEFECE" height="2" style="stroke:#A80036;stroke-width:1;" width="4" x="619.7305" y="699.2969"/><rect fill="#FEFECE" height="2" style="stroke:#A80036;stroke-width:1;" width="4" x="619.7305" y="703.2969"/><text fill="#000000" font-family="sans-serif" font-size="14" lengthAdjust="spacing" textLength="155.2305" x="461.5" y="725.292">Timestamps database</text></g><!--entity Network--><g id="elem_Network"><path d="M1195.0507,182.4345 C1197.2197,175.4681 1202.9794,175.3035 1206.9299,180.7263 C1211.5451,173.9779 1216.9468,173.9313 1220.5323,181.6916 C1222.6865,175.7614 1226.9072,174.9003 1231.0148,179.801 C1235.1921,173.4876 1242.0755,173.5497 1245.5156,180.6009 C1248.7134,175.5424 1252.9301,175.4318 1256.5484,180.1253 C1260.2621,173.4528 1265.531,174.882 1269.0568,180.3193 C1272.6114,174.5642 1279.0481,174.6096 1282.5602,180.3692 C1285.7684,175.0968 1291.5522,174.3989 1294.678,180.4575 C1299.664,175.1046 1303.3236,176.6364 1306.1835,182.6161 C1309.5245,175.7501 1314.4442,175.9972 1318.4965,181.9319 C1328.1581,184.5563 1328.9196,190.918 1322.7193,197.7713 C1327.7157,204.1833 1326.7631,208.4901 1319.1558,211.6708 C1315.5864,218.7597 1311.365,219.2091 1306.278,213.1582 C1303.5447,219.28 1298.1072,220.8425 1293.8849,214.6576 C1291.2064,220.8897 1286.552,222.1714 1281.344,217.5918 C1278.5831,223.5124 1273.9698,223.6548 1270.3441,218.4467 C1267.7459,225.1561 1262.0426,224.8316 1257.901,220.1297 C1253.6799,225.0247 1247.6582,224.5646 1245.4227,217.9727 C1241.9472,224.3802 1236.1231,224.8221 1232.6571,217.9635 C1227.2465,223.5782 1221.5714,223.1344 1219.0523,215.0846 C1215.2852,221.4288 1209.7252,219.9724 1206.516,214.4932 C1203.1374,219.5232 1197.7472,218.8964 1195.0294,213.7475 C1185.8772,212.7997 1180.0136,205.6664 1187.1322,197.0316 C1182.9635,189.9252 1185.5438,182.1223 1195.0507,182.4345 " fill="#FEFECE" filter="url(#fg5ge3jsrdxd5)" style="stroke:#A80036;stroke-width:1;"/><text fill="#000000" font-family="sans-serif" font-size="14" lengthAdjust="spacing" textLength="110.8242" x="1200.5" y="201.292">Docker network</text></g><!--link DA to DB--><g id="link_DA_DB"><path d="M679.41,593.3269 C705.46,620.1169 749.17,665.0969 775.33,692.0069 " fill="none" id="DA-DB" style="stroke:#A80036;stroke-width:1;stroke-dasharray:7.0,7.0;"/></g><!--link DA to MDB--><g id="link_DA_MDB"><path d="M711.75,576.6469 C769.22,583.9169 861.95,600.1469 935,634.2969 C966.14,648.8569 996.84,673.8169 1016.92,691.9969 " fill="none" id="DA-MDB" style="stroke:#A80036;stroke-width:1;stroke-dasharray:7.0,7.0;"/></g><!--link DA to Original--><g id="link_DA_Original"><path d="M604.23,578.4469 C555.91,586.5869 484.27,603.0369 429,634.2969 C402.71,649.1669 378.39,674.0769 362.75,692.1569 " fill="none" id="DA-Original" style="stroke:#A80036;stroke-width:1;stroke-dasharray:7.0,7.0;"/></g><!--link DA to TDB--><g id="link_DA_TDB"><path d="M640.44,593.3269 C619.08,620.1169 583.22,665.0969 561.77,692.0069 " fill="none" id="DA-TDB" style="stroke:#A80036;stroke-width:1;stroke-dasharray:7.0,7.0;"/></g><!--link Model to Mod--><g id="link_Model_Mod"><path d="M241.2,593.3269 C218.35,620.1169 179.98,665.0969 157.02,692.0069 " fill="none" id="Model-Mod" style="stroke:#A80036;stroke-width:1;stroke-dasharray:7.0,7.0;"/></g><!--reverse link Internet to Frontend--><g id="link_Internet_Frontend"><path d="M1259.2294,476.4867 C1259.4094,498.3267 1259.64,525.4569 1259.82,547.2469 " fill="none" id="Internet-backto-Frontend" style="stroke:#A80036;stroke-width:1;"/><polygon fill="#A80036" points="1259.18,470.4869,1255.2543,479.5195,1259.2212,475.4867,1263.254,479.4536,1259.18,470.4869" style="stroke:#A80036;stroke-width:1;"/></g><!--reverse link Backend to Internet--><g id="link_Backend_Internet"><path d="M1259,357.4869 C1259,379.3269 1259,402.4569 1259,424.2469 " fill="none" id="Backend-backto-Internet" style="stroke:#A80036;stroke-width:1;"/><path d="M1250.5428,350.5651 A9,9 0 0 0 1267.4572 350.5651" fill="none" style="stroke:#A80036;stroke-width:1.5;"/></g><!--reverse link Network to Backend--><g id="link_Network_Backend"><path d="M1256.6733,225.5352 C1257.2233,248.5652 1257.93,278.3369 1258.48,301.2869 " fill="none" id="Network-backto-Backend" style="stroke:#A80036;stroke-width:1;"/><polygon fill="#A80036" points="1256.53,219.5369,1252.746,228.6298,1256.6494,224.5354,1260.7437,228.4388,1256.53,219.5369" style="stroke:#A80036;stroke-width:1;"/></g><!--reverse link Proxy to Network--><g id="link_Proxy_Network"><path d="M964.2706,110.2449 C1015.8406,125.2749 1113.75,153.8269 1185.41,174.7169 " fill="none" id="Proxy-backto-Network" style="stroke:#A80036;stroke-width:1;"/><path d="M955.2588,116.4276 A9,9 0 0 0 959.9916 100.1888" fill="none" style="stroke:#A80036;stroke-width:1.5;"/></g><!--link Proxy to Interface--><g id="link_Proxy_Interface"><path d="M901.06,109.4969 C862.5,126.7169 786.55,160.6469 742.59,180.2869 " fill="none" id="Proxy-Interface" style="stroke:#A80036;stroke-width:1;"/></g><!--link Interface to Features--><g id="link_Interface_Features"><path d="M694.43,219.4369 C674.62,249.1669 637.67,303.3669 603,347.2969 C581.45,374.5969 554.82,404.3769 536.74,424.0769 " fill="none" id="Interface-Features" style="stroke:#A80036;stroke-width:1;"/><text fill="#000000" font-family="sans-serif" font-size="13" lengthAdjust="spacing" textLength="81.085" x="669" y="328.8638">functionality</text></g><!--link Features to Model--><g id="link_Features_Model"><path d="M465.17,454.4069 C424.86,461.0169 368.32,474.2969 325,500.2969 C305.1,512.2369 287.41,531.9569 275.52,547.2669 " fill="none" id="Features-Model" style="stroke:#A80036;stroke-width:1;"/><text fill="#000000" font-family="sans-serif" font-size="13" lengthAdjust="spacing" textLength="140.937" x="326" y="513.3638">extraction of features</text></g><!--link Features to DA--><g id="link_Features_DA"><path d="M491.87,470.5069 C479.51,484.5869 469.14,502.8069 480,517.2969 C495.01,537.3269 557.46,552.2069 604.18,560.8069 " fill="none" id="Features-DA" style="stroke:#A80036;stroke-width:1;"/><text fill="#000000" font-family="sans-serif" font-size="13" lengthAdjust="spacing" textLength="167.9146" x="481" y="513.3638">getting data from dataset</text></g><!--link Logger to Features--><g id="link_Logger_Features"><path d="M536.41,347.4869 C531.9,369.3269 525.06,402.4569 520.56,424.2469 " fill="none" id="Logger-Features" style="stroke:#A80036;stroke-width:1;"/></g><!--link Interface to Logger--><g id="link_Interface_Logger"><path d="M676.42,219.3969 C659.93,230.7769 639.7,245.0069 622,258.2969 C603.54,272.1469 583.29,288.3969 567.66,301.1869 " fill="none" id="Interface-Logger" style="stroke:#A80036;stroke-width:1;"/></g><!--link Interface to DA--><g id="link_Interface_DA"><path d="M733.5,219.4969 C743.44,230.1369 753.79,243.7269 759,258.2969 C772.31,295.5469 767.38,308.6369 759,347.2969 C742.13,425.0969 695.57,508.3569 672.02,547.0969 " fill="none" id="Interface-DA" style="stroke:#A80036;stroke-width:1;"/><text fill="#000000" font-family="sans-serif" font-size="13" lengthAdjust="spacing" textLength="107.9419" x="751" y="390.3638">loading datasets</text></g><!--link Logger to DA--><g id="link_Logger_DA"><path d="M560.44,347.4269 C586.77,378.9069 632.81,439.5369 653,500.2969 C658,515.3469 659.17,533.2169 659.14,547.0069 " fill="none" id="Logger-DA" style="stroke:#A80036;stroke-width:1;"/></g><!--link Logger to Model--><g id="link_Logger_Model"><path d="M498.23,347.5469 C445.31,376.7769 354.99,432.4469 296,500.2969 C283.94,514.1669 274.54,532.7669 268.37,547.1669 " fill="none" id="Logger-Model" style="stroke:#A80036;stroke-width:1;"/></g><!--SRC=[PLCzR-Cm3DtrAmXFlI4TRknmG8eqG87cMk2w5HrKcpQ4s98XqTS6X_ptewYFkaq6-ubyV7uYcN0q5hmBg5HWE6kl9sZTD3kBblxGQKHOfl6dKcI8yKwJXe3-hsaH0lcbfSLpyQpRenuGckqyZwRLP9mjl0R-AU1VbOMNMwQZxLv11yWuKKQtT71l2Rr5-bwrzuupkQmSr5cfLDRi72jvuCftvuzDPFrEM86ohcDxQ__5rzMJTn-d7u9VsB_8YuTUjvZ2iUvD1vJSRfk21vOSWuG4fkWUTUn9YfT3IZsuOK0lYGGbt6LjQFQ6MnnEWN0Iz_k7R34MttsGrorX1tqMhPN9rMsb7f1qp7qb75QCHsy6O_Ke0vLiYLJAivama9xcRzzvpZ9dUQQsvci29e_EmnGRqkJMg3CejTl2zNLqcS2XelhbT8pwqavXSN6PD6oMUVFhSpiAaFXLtQFypkoo0FcTkJ9n9K_OTExTRbO3hwYaoX3X1lh5jd6tzMZef6eY4vDjfkK-n3-1w-kyBlXyuHiOaCZOGPeClNUJeC0N_AIpwR8n5-vI72uJeZuwtHLrrWonoMkvP7aL-Gy0]--></g></svg>